<?xml version="1.0" encoding="UTF-8"?>
<svg id="Layer_2" data-name="Layer 2" xmlns="http://www.w3.org/2000/svg" viewBox="0 0 222.93 199.58">
  <defs>
    <style>
      .cls-1 {
        fill: #fff;
      }

      .cls-2, .cls-3 {
        stroke: #fff;
        stroke-linecap: round;
        stroke-width: 2.91px;
      }

      .cls-4 {
        stroke: #000;
        stroke-linejoin: bevel;
        stroke-width: 2.68px;
      }

      .cls-3 {
        fill: none;
      }
    </style>
  </defs>
  <g id="Ebene_1" data-name="Ebene 1">
    <g>
      <path class="cls-4" d="m220.27,52.96c2.68-4.59,1.13-10.49-3.46-13.16-4.58-2.68-10.48-1.13-13.16,3.46-2.3,3.94-1.48,8.82,1.69,11.82-13.11,15.89-37.02,44.88-42.8,51.9-1.7-.76-3.45-1.48-5.28-2.15.52-5.39,4.3-46.53,6.32-68.41,4.37.1,8.39-2.79,9.53-7.2,1.33-5.15-1.76-10.4-6.9-11.73-5.15-1.33-10.4,1.76-11.73,6.9-1.14,4.41.97,8.89,4.84,10.92-9.48,21.51-27.87,63.26-27.92,63.43,0,.04,0,.08-.01.13-1.67-.2-3.39-.37-5.13-.52-.35-2.31-8.24-50.71-12.35-75.92,4.73-1.1,8.25-5.33,8.25-10.4,0-5.91-4.79-10.69-10.69-10.69s-10.69,4.79-10.69,10.69c0,5.06,3.53,9.29,8.25,10.4-4.09,25.09-11.93,73.16-12.34,75.88-1.83.14-3.62.32-5.36.52-.01-.06,0-.11-.03-.17-.04-.17-18.44-41.93-27.91-63.43,3.86-2.03,5.98-6.51,4.84-10.92-1.33-5.14-6.58-8.23-11.73-6.9-5.14,1.33-8.23,6.58-6.9,11.73,1.14,4.41,5.16,7.3,9.53,7.2,2.01,21.86,5.79,62.92,6.32,68.4-1.79.65-3.51,1.35-5.19,2.08-6.01-7.3-29.66-35.97-42.67-51.73,3.17-3,3.99-7.89,1.7-11.82-2.68-4.59-8.57-6.14-13.16-3.46C1.53,42.47-.02,48.37,2.66,52.96c2.3,3.93,6.95,5.62,11.13,4.34,7.83,20.38,33.08,85.98,34.05,86.88h0c.02.11,2.5,16.38,2.77,21.78.27,5.37-2.06,18.5-1.89,18.58h0s0,0,0,0c18.73,8.77,40.07,13.7,62.94,13.7s64.77-14.12,64.58-14.21c-2.73-5.75-1.7-39.86-1.7-39.86.96-.91,26.55-65.96,34.59-86.87,4.12,1.29,8.78-.41,11.07-4.34"/>
      <g>
        <path class="cls-2" d="m53.37,180.62c19.7-8.12,38.13-11.6,60.73-11.6s39.07,3.59,57.22,11.12"/>
        <path class="cls-2" d="m167.58,142.59c-16.02-6.16-35.65-9.78-56.86-9.78s-41.18,3.69-57.28,9.94"/>
      </g>
      <path class="cls-3" d="m169.5,169.39c-17.73-5.86-35.79-10.11-56.11-10.11s-40.67,4.37-59.38,10.45"/>
      <polygon class="cls-1" points="102.61 147.5 111.54 151.96 120.51 147.5 111.54 143.03 102.61 147.5"/>
      <polygon class="cls-1" points="157.07 153.32 147.54 156.31 139.42 150.45 148.95 147.47 157.07 153.32"/>
      <polygon class="cls-1" points="66.05 153.32 75.58 156.31 83.7 150.45 74.17 147.47 66.05 153.32"/>
    </g>
  </g>
</svg>