<?xml version="1.0" encoding="UTF-8"?>
<svg id="Layer_2" data-name="Layer 2" xmlns="http://www.w3.org/2000/svg" viewBox="0 0 233.91 218.26">
  <defs>
    <style>
      .cls-1, .cls-2, .cls-3, .cls-4, .cls-5 {
        stroke-width: 1.68px;
      }

      .cls-1, .cls-2, .cls-5, .cls-6 {
        stroke: #000;
      }

      .cls-1, .cls-7, .cls-6 {
        fill: #fff;
      }

      .cls-8 {
        fill: #20201e;
      }

      .cls-3, .cls-4 {
        fill: none;
        stroke: #fff;
        stroke-linecap: round;
      }

      .cls-7 {
        stroke: #20201e;
        stroke-width: 4.15px;
      }

      .cls-4, .cls-5, .cls-6 {
        stroke-linejoin: bevel;
      }

      .cls-6 {
        stroke-width: 3.19px;
      }
    </style>
  </defs>
  <g id="Ebene_1" data-name="Ebene 1">
    <g>
      <path class="cls-8" d="m233.82,208.74c-1.96-1.07-19.66-18.46-36.07-18.46-8.53,0-15.23,2.57-21.12,4.85-5.98,2.3-11.63,4.48-19.81,4.48-9.53,0-17.44-2.91-24.43-5.47-5.63-2.06-10.5-3.85-15.47-3.85s-9.84,1.79-15.47,3.85c-6.98,2.57-14.9,5.47-24.43,5.47-8.18,0-13.83-2.18-19.81-4.48-5.9-2.27-12.59-4.85-21.12-4.85-16.42,0-34.11,17.39-36.08,18.46,0,0,7.14-4.47,13.79-4.47s12.41,4.66,22.28,4.66c5.06,0,9.19,1.59,14.42,3.6,6.62,2.55,14.87,5.72,26.51,5.72,12.85,0,23.26-3.82,30.86-6.61,3.46-1.27,7.38-2.71,9.04-2.71s5.58,1.44,9.04,2.71c7.6,2.79,18.01,6.61,30.86,6.61,11.65,0,19.89-3.17,26.51-5.72,5.23-2.01,9.36-3.6,14.42-3.6,9.87,0,17.36-4.66,22.28-4.66s13.87,4.47,13.87,4.47h-.08Z"/>
      <path class="cls-7" d="m179.62,102.05c0-29.43-25.11-76.08-44.33-82.39-.67-.22-1.36-.4-2.06-.55,3.35-1.24,5.75-4.46,5.75-8.24,0-4.86-3.94-8.79-8.79-8.79s-8.8,3.94-8.8,8.79c0,3.38,1.91,6.3,4.7,7.78-3.94.26-8.2,1.28-12.58,3.05-2.8-1.27-5.58-2.18-8.32-2.68,3.21-1.31,5.47-4.46,5.47-8.14,0-4.86-3.94-8.79-8.79-8.79s-8.79,3.94-8.79,8.79c0,3.43,1.97,6.4,4.84,7.85-1.49.16-2.95.47-4.39.95-19.17,6.31-43.73,51.23-43.73,82.39,0,24.85,10.07,46.25,21.69,61.75,1.73,4.59,4.36,4.73,4.93,5.3,0,0,0,0,0,0-.01.08-2.3,14.97-2.53,18.34-.35,5.19-.87,11.31-.87,11.31,12.68,5.58,26.57,8.81,41.66,8.81s28.3-3.55,40.97-9.12c-.45-4.14-.97-8.29-2.01-14.51-.54-3.25-2.4-14.84-2.4-14.84.57-.56,3.98-4.85,3.98-4.85,12.33-15.57,24.38-36.34,24.38-62.17h.02Z"/>
      <path class="cls-2" d="m76.71,169.1c10.28-4.43,22.1-8.31,37.42-8.31s27.13,3.88,37.41,8.3c.56-.56,1.91-2,4.68-5.89-8.65-9.36-21.24-14.5-41.83-14.5-21.97,0-33.97,5.73-42.62,15.11,1.76,4.56,4.4,4.72,4.97,5.29h-.04Z"/>
      <path class="cls-6" d="m155.3,198.42c-12.68-5.57-25.65-8.33-40.74-8.33s-29.22,3.07-41.9,8.64c12.68,5.58,26.57,8.81,41.66,8.81s28.31-3.56,40.99-9.12h-.02Z"/>
      <path class="cls-2" d="m154.95,164.22c7.99-13.35,18.49-38.52,5.36-81.35-11.01-35.94-43.47-71.01-67.07-63.22-20.94,6.91-43.73,56.42-43.73,82.39s10.06,46.25,21.68,61.75l83.78.41-.03.03Z"/>
      <circle class="cls-2" cx="101.59" cy="10.85" r="8.79"/>
      <path class="cls-5" d="m150.95,169.07h0c-10.28-4.43-22.11-8.14-37.41-8.14s-27.13,3.71-37.41,8.14c0,0-2.3,14.97-2.53,18.34-.35,5.19-.87,11.31-.87,11.31,12.67-5.57,26.81-8.64,41.89-8.64s28.24,2.96,40.74,8.33c-.45-4.14-.97-8.29-2-14.51-.57-3.27-2.42-14.88-2.42-14.88l.02.04Z"/>
      <path class="cls-4" d="m150.58,189.14c-11.4-3.54-23.56-5.48-36.12-5.48s-25.82,2.08-37.52,5.75"/>
      <g>
        <path class="cls-3" d="m79.38,167.71c9.52-3.83,20.44-6.95,34.17-6.95s24.76,3.15,34.31,7.01"/>
        <path class="cls-3" d="m154.07,160.95c-12.09-9.67-21.76-12.26-39.66-12.26-14.99,0-30.46,3.97-37.88,10.76"/>
      </g>
      <polygon class="cls-1" points="135.41 85.69 131.32 89.82 110.62 89.82 110.62 71.13 114.74 67.01 106.44 58.7 98.13 67.01 102.28 71.16 102.28 89.82 81.46 89.82 77.34 85.69 69.03 94 77.34 102.31 81.52 98.15 102.28 98.15 102.28 120.93 98.13 125.08 106.44 133.39 114.74 125.08 110.62 120.96 110.62 98.15 131.26 98.15 135.41 102.31 143.72 94 135.41 85.69"/>
    </g>
  </g>
</svg>