<?xml version="1.0" encoding="UTF-8"?>
<svg id="Layer_2" data-name="Layer 2" xmlns="http://www.w3.org/2000/svg" viewBox="0 0 214.77 202.39">
  <defs>
    <style>
      .cls-1 {
        fill: #20201e;
      }

      .cls-1, .cls-2, .cls-3 {
        stroke-width: 2.68px;
      }

      .cls-1, .cls-3 {
        stroke: #20201e;
      }

      .cls-2 {
        stroke: #fff;
      }

      .cls-2, .cls-3 {
        fill: none;
      }
    </style>
  </defs>
  <g id="Ebene_1" data-name="Ebene 1">
    <g>
      <path class="cls-1" d="m160.14,24.79s-3.49-18.76-3.49-21.37-2.61-3.05-5.23.44c-2.62,3.49-14.39,20.5-14.39,20.5l23.09.41.02.03Z"/>
      <path class="cls-1" d="m3.66,168.66c1.18-8.46,2.8-16.52,4.77-24.19l6.32-2.52-4.22-5.04c2.41-8.11,5.2-15.74,8.27-22.92l5.98-1.69-2.95-5.06c3.21-6.83,6.66-13.19,10.25-19.12l5.57-1.12-2-4.6c4.02-6.2,8.14-11.86,12.24-16.99l5.9-.65-1.58-4.6c4.79-5.62,9.45-10.52,13.77-14.7l5.91-.33-1.03-4.23c10.53-9.53,17.97-14.16,17.97-14.16l13.38,4.07s6.4-3.49,11.63-6.98c0,0,3.49-11.63,4.65-18.03,1.16-6.4,4.65-3.49,5.81-1.74,1.17,1.74,13.23,15.12,13.23,15.12,0,0,7.22-.99,12.36,0,7.56,1.45,11.05,6.54,19.77,14.83,6.36,6.04,10.18,11.34,12.36,17.01,2.18,5.67-.43,5.67.43,10.9.88,5.24,24.43,44.49,27.04,49.28,2.62,4.8,8.94,19.47-3.49,28.78-3.49,2.62-6.11,3.93-8.29,4.8,0,0-3.49-.87-4.8-2.61-.23-.31-.35-.5-.41-.61-.04-.12-.06-.12,0,0,.13.34.44,1.62-.9,3.22-2.18,2.62-4.98,2.42-6.54,2.62-2.32.29-6.54-1.75-10.03-6.98-3.49-5.24-5.67-6.98-8.29-10.03-2.61-3.05-17.05-9.81-22.68-19.19-1.31-2.18-4.36-1.31-6.54.44-2.18,1.75-14.39,2.18-19.63-6.54,0,0-2.47,22.94,7.85,38.82,17.01,26.17,45.79,32.71,54.52,57.14H1.34c0-8.44.44-16.54,1.25-24.34l5.94-3.14-4.98-4.91h.1Z"/>
      <path class="cls-2" d="m95.8,36.62S19.62,93.61,19.62,196.53"/>
      <path class="cls-2" d="m111.5,76.16c-1.45,16.28,6.11,27.91,6.4,28.93,0,0-18.32-9.45-20.07-21.95"/>
      <path class="cls-2" d="m117.89,105.07s-12.21,5.96-21.23,2.18"/>
      <path class="cls-3" d="m192.92,141.51s-8.14-10.47-10.47-15.27"/>
      <path class="cls-2" d="m142.74,44.89s13.41.07,17.88,7.41c6.11,10.03-.87,11.34-.87,11.34,0,0-6.98,2.18-11.78-4.36-5.11-6.97-.87-11.34-.87-11.34l-4.34-3.05h-.02Z"/>
      <path class="cls-2" d="m207.74,118.82c-4.8-1.31-7.85-.88-10.03.44,0,0,2.18-6.55-1.74-12.22-3.93-5.67-10.47-6.1-16.14-17.01"/>
      <line class="cls-2" x1="80.38" y1="51.02" x2="72.11" y2="45.77"/>
      <line class="cls-2" x1="63.38" y1="69.78" x2="55.09" y2="65.84"/>
      <line class="cls-2" x1="48.12" y1="91.51" x2="38.52" y2="87.58"/>
      <line class="cls-2" x1="35.9" y1="116.43" x2="25.87" y2="112.94"/>
      <line class="cls-2" x1="26.31" y1="145.66" x2="15.84" y2="142.61"/>
      <line class="cls-2" x1="20.63" y1="175.3" x2="9.73" y2="174.01"/>
    </g>
  </g>
</svg>