<?xml version="1.0" encoding="UTF-8"?>
<svg id="Layer_2" data-name="Layer 2" xmlns="http://www.w3.org/2000/svg" viewBox="0 0 214.69 202.35">
  <defs>
    <style>
      .cls-1 {
        fill: #20201e;
      }

      .cls-1, .cls-2, .cls-3 {
        stroke-width: 2.68px;
      }

      .cls-1, .cls-3 {
        stroke: #20201e;
      }

      .cls-2 {
        stroke: #fff;
      }

      .cls-2, .cls-3 {
        fill: none;
      }
    </style>
  </defs>
  <g id="Ebene_1" data-name="Ebene 1">
    <g>
      <path class="cls-1" d="m54.62,24.79s3.49-18.76,3.49-21.37,2.61-3.05,5.23.44c2.62,3.49,14.39,20.5,14.39,20.5l-23.12.41v.03Z"/>
      <path class="cls-1" d="m211.08,168.66c-1.18-8.46-2.8-16.52-4.77-24.18l-6.32-2.53,4.22-5.05c-2.41-8.11-5.2-15.74-8.27-22.92l-5.98-1.69,2.99-5.1c-3.21-6.83-6.66-13.19-10.25-19.12l-5.57-1.12,2-4.6c-4.02-6.2-8.15-11.86-12.24-16.99l-5.9-.65,1.58-4.6c-4.79-5.62-9.45-10.52-13.77-14.7l-5.91-.33,1.03-4.23c-10.53-9.53-17.97-14.16-17.97-14.16l-13.37,4.07s-6.4-3.49-11.63-6.98c0,0-3.49-11.63-4.65-18.03-1.17-6.39-4.66-3.49-5.82-1.75-1.17,1.75-13.23,15.12-13.23,15.12,0,0-7.22-.99-12.35,0-7.56,1.45-11.05,6.54-19.77,14.83-6.37,6.04-10.18,11.34-12.36,17.01-2.18,5.67.43,5.67-.44,10.9-.88,5.24-24.43,44.49-27.04,49.29-2.62,4.8-8.94,19.47,3.49,28.79,3.48,2.62,6.1,3.93,8.28,4.8,0,0,3.49-.87,4.8-2.61.23-.31.35-.51.41-.61.04-.12.06-.12,0,0-.14.34-.44,1.62.9,3.22,2.18,2.62,4.98,2.43,6.54,2.62,2.32.3,6.54-1.74,10.03-6.98,3.49-5.23,5.67-6.98,8.29-10.03,2.61-3.05,17.05-9.81,22.68-19.19,1.31-2.18,4.36-1.31,6.54.44,2.18,1.75,14.39,2.18,19.63-6.54,0,0,2.47,22.94-7.85,38.82-17.01,26.16-45.79,32.71-54.52,57.13h178.82c0-8.44-.45-16.55-1.25-24.34l-5.95-3.14,5.03-4.88h-.09Z"/>
      <path class="cls-2" d="m118.96,36.62s76.18,56.99,76.18,159.92"/>
      <path class="cls-2" d="m103.26,76.16c1.45,16.28-6.11,27.91-6.4,28.93,0,0,18.32-9.45,20.07-21.95"/>
      <path class="cls-2" d="m96.84,105.08s12.21,5.96,21.23,2.18"/>
      <path class="cls-3" d="m21.84,141.51s8.14-10.47,10.47-15.27"/>
      <path class="cls-2" d="m71.99,44.89s-13.41.06-17.88,7.41c-6.1,10.03.88,11.34.88,11.34,0,0,6.97,2.18,11.77-4.36,5.11-6.97.87-11.34.87-11.34l4.34-3.05h.02Z"/>
      <path class="cls-2" d="m7.02,118.82c4.8-1.31,7.85-.87,10.03.44,0,0-2.18-6.54,1.75-12.22,3.93-5.67,10.47-6.1,16.14-17.01"/>
      <line class="cls-2" x1="134.35" y1="50.99" x2="142.65" y2="45.77"/>
      <line class="cls-2" x1="151.37" y1="69.74" x2="159.67" y2="65.84"/>
      <line class="cls-2" x1="166.62" y1="91.52" x2="176.22" y2="87.58"/>
      <line class="cls-2" x1="178.86" y1="116.43" x2="188.87" y2="112.94"/>
      <line class="cls-2" x1="188.43" y1="145.66" x2="198.9" y2="142.61"/>
      <line class="cls-2" x1="194.12" y1="175.3" x2="205.01" y2="174.01"/>
    </g>
  </g>
</svg>