<?xml version="1.0" encoding="UTF-8"?>
<svg id="Layer_2" data-name="Layer 2" xmlns="http://www.w3.org/2000/svg" viewBox="0 0 131.16 197.79">
  <defs>
    <style>
      .cls-1 {
        stroke: #000;
        stroke-linejoin: round;
        stroke-width: 2.48px;
      }
    </style>
  </defs>
  <g id="Ebene_1" data-name="Ebene 1">
    <path class="cls-1" d="m90.58,168.27c-11.8-23.42-10.61-65.14-9.62-81.3,18.66-1.28,32.08-4.81,32.08-8.98s-12.92-7.57-31.03-8.91c11.57-5.96,19.49-18.02,19.49-31.93,0-19.84-16.07-35.91-35.91-35.91S29.67,17.32,29.67,37.15c0,13.91,7.92,25.97,19.49,31.93-18.11,1.34-31.04,4.82-31.04,8.91s13.43,7.7,32.08,8.98c.99,16.17,2.18,57.88-9.62,81.3-23.12,4.65-39.35,15.56-39.35,28.27h128.67c0-12.71-16.2-23.63-39.33-28.28h-.02Z"/>
  </g>
</svg>