<?xml version="1.0" encoding="UTF-8"?>
<svg id="Layer_2" data-name="Layer 2" xmlns="http://www.w3.org/2000/svg" viewBox="0 0 200.65 193.89">
  <defs>
    <style>
      .cls-1 {
        fill: #fff;
        stroke-width: 1px;
      }

      .cls-1, .cls-2 {
        stroke: #000;
      }

      .cls-3 {
        stroke-linejoin: bevel;
      }

      .cls-3, .cls-4 {
        stroke-width: 1.95px;
      }

      .cls-3, .cls-4, .cls-5 {
        fill: none;
      }

      .cls-3, .cls-4, .cls-5, .cls-6 {
        stroke: #fff;
      }

      .cls-5, .cls-6 {
        stroke-linecap: round;
        stroke-width: 3.17px;
      }

      .cls-2 {
        stroke-width: .98px;
      }
    </style>
  </defs>
  <g id="Ebene_1" data-name="Ebene 1">
    <g>
      <path class="cls-2" d="m118.8,62.25c4.26-2.52,6.05-5.88,6.05-9.59,0-1.08.15-52.17.15-52.17h-50.65s-.24,51.53-.24,52.17c0,3.73,2.64,7.12,6.96,9.64-3.05.44-6.07.99-9.05,1.64,4.77,3.05,9.28,6.61,13.45,10.67,5.91,5.75,10.8,12.11,14.63,18.97,3.84-6.86,8.73-13.23,14.63-18.97,4.18-4.06,8.69-7.63,13.46-10.68-3.05-.66-6.2-1.2-9.34-1.67l-.05-.03Z"/>
      <path d="m165.39,178.37c-3.13-6.28-3.22-14.5-1.83-20.05,1.43-5.71,14.95-16.51,14.95-16.51,23.82-23.17,29.27-56.2,12.18-73.76-17.09-17.57-50.25-13.01-74.07,10.16-7.11,6.92-12.57,14.72-16.3,22.73-3.73-8.01-9.19-15.81-16.3-22.73-23.82-23.17-56.98-27.72-74.07-10.16-17.09,17.57-11.63,50.6,12.18,73.76,1.08,1.04,12.95,10.8,14.37,16.51,1.42,5.7,1.62,13.9-1.8,20.26h.51c-.08.04-.15.07-.23.11,19.71,9.72,41.89,15.19,65.35,15.19,23.44-.03,45.3-5.82,65.03-15.54"/>
      <g>
        <path class="cls-6" d="m38.45,177.21c18.97-8.85,39.94-13.76,62.25-13.76s42,5.26,60.35,12.74"/>
        <path class="cls-6" d="m170.17,140.46c-19.76-6.7-43.96-10.65-70.12-10.65s-50.78,4.02-70.64,10.84"/>
      </g>
      <polygon class="cls-3" points="120.87 4.17 78.37 42.27 120.87 42.27 78.37 4.17 120.87 4.17"/>
      <path class="cls-5" d="m157.81,163.71c-18.19-6.39-37.55-11.02-57.62-11.02s-40.17,4.76-58.66,11.37"/>
      <polygon class="cls-1" points="90.23 142.28 100.2 147.26 110.18 142.28 100.2 137.28 90.23 142.28"/>
      <polygon class="cls-1" points="49.49 148.77 60.12 152.07 69.15 145.56 58.52 142.22 49.49 148.77"/>
      <polygon class="cls-1" points="150.95 148.77 140.29 152.07 131.26 145.56 141.89 142.22 150.95 148.77"/>
      <rect class="cls-3" x="78.37" y="4.17" width="42.52" height="38.1"/>
      <ellipse class="cls-4" cx="99.98" cy="59.61" rx="17.93" ry="13.24"/>
    </g>
  </g>
</svg>