<?xml version="1.0" encoding="UTF-8"?>
<svg id="Layer_2" data-name="Layer 2" xmlns="http://www.w3.org/2000/svg" viewBox="0 0 161.44 210.38">
  <defs>
    <style>
      .cls-1 {
        fill: none;
        stroke: #fff;
        stroke-linecap: round;
      }

      .cls-1, .cls-2 {
        stroke-width: 2.68px;
      }

      .cls-2 {
        stroke: #000;
        stroke-linecap: square;
      }
    </style>
  </defs>
  <g id="Ebene_1" data-name="Ebene 1">
    <g>
      <path class="cls-2" d="m155.16,187.52h-3.05v-18.32l-14.68-16.44h-.15V55.8h.15l19.1-18.27h.12V6.29c0-2.73-2.12-4.94-4.73-4.94h-26.42v16.99l-14.83,4.91-13.66-4.91V1.34h-32.57v16.99l-13.67,4.91-14.83-4.91V1.34H9.53c-2.61,0-4.73,2.21-4.73,4.94v31.25h.05l19.17,18.27v96.96l-14.68,16.44v18.32h-3.05c-2.73,0-4.95,2.22-4.95,4.95v11.62c0,2.73,2.21,4.94,4.95,4.94h148.86c2.73,0,4.95-2.22,4.95-4.94v-11.62c0-2.71-2.21-4.94-4.95-4.94h0Z"/>
      <line class="cls-1" x1="14.18" y1="187.52" x2="146.18" y2="187.52"/>
      <line class="cls-1" x1="14.76" y1="169.21" x2="145.6" y2="169.21"/>
      <line class="cls-1" x1="131.65" y1="152.79" x2="27.55" y2="152.79"/>
      <line class="cls-1" x1="28.13" y1="55.82" x2="132.23" y2="55.82"/>
      <line class="cls-1" x1="11.27" y1="37.55" x2="152.58" y2="37.55"/>
    </g>
  </g>
</svg>