<?xml version="1.0" encoding="UTF-8"?>
<svg id="Layer_2" data-name="Layer 2" xmlns="http://www.w3.org/2000/svg" viewBox="0 0 223.68 200.73">
  <defs>
    <style>
      .cls-1, .cls-2 {
        fill: #fff;
        stroke: #20201e;
        stroke-width: 3.49px;
      }

      .cls-2 {
        stroke-linejoin: bevel;
      }
    </style>
  </defs>
  <g id="Ebene_1" data-name="Ebene 1">
    <g>
      <path class="cls-2" d="m176.07,184.62c-19.09-8.92-40-13.61-63.09-13.61s-45.48,5.12-65.19,14.04c19.09,8.92,40.74,13.94,63.83,13.94,23.12.03,44.77-5.44,64.46-14.35v-.02Z"/>
      <path class="cls-2" d="m174.66,144.57v-.02c-17.17-7.07-37.13-11.38-63.05-11.38s-46.01,4.31-63.67,11.4c0,0,1.93,16.37,2.01,21.78.1,6.1-1.61,18.59-1.61,18.59,19.71-8.93,41.56-13.94,64.65-13.94s45.67,4.65,63.09,13.61c-2.86-5.73-1.42-40.02-1.42-40.02v-.02Z"/>
      <path class="cls-2" d="m48.4,184.84c18.55-8.82,41.49-13.84,64.58-13.84s41.66,3.19,63.09,13.61c-.86-2.41-1.44-9.89-1.63-12.6-18.97-7.05-39.89-11.05-61.42-11.05s-43.67,4.22-63.32,11.41c-.41,2.8-1.29,12.43-1.29,12.43v.04Z"/>
      <path class="cls-1" d="m217.22,40.2c-4.59-2.68-10.48-1.13-13.16,3.46-2.3,3.94-1.48,8.82,1.69,11.82-13.11,15.89-37.03,44.87-42.8,51.9-1.7-.76-3.45-1.48-5.28-2.15.52-5.39,4.31-46.54,6.32-68.42,4.37.1,8.39-2.79,9.53-7.2,1.33-5.15-1.76-10.4-6.91-11.73-5.14-1.33-10.39,1.76-11.72,6.9-1.14,4.41.97,8.89,4.84,10.92-9.48,21.51-27.87,63.26-27.92,63.43,0,.04,0,.08-.01.13-1.67-.2-3.39-.37-5.14-.52-.35-2.32-8.23-50.71-12.34-75.92,4.73-1.11,8.24-5.34,8.24-10.4,0-5.9-4.78-10.69-10.69-10.69s-10.69,4.79-10.69,10.69c0,5.06,3.53,9.29,8.25,10.4-4.09,25.09-11.93,73.16-12.34,75.88-1.83.15-3.62.32-5.36.53-.01-.06,0-.11-.03-.17-.04-.17-18.44-41.93-27.91-63.44,3.86-2.03,5.98-6.51,4.84-10.92-1.33-5.14-6.58-8.24-11.73-6.9-5.14,1.33-8.23,6.58-6.9,11.73,1.14,4.41,5.16,7.3,9.53,7.2,2.01,21.86,5.79,62.92,6.32,68.4-1.79.65-3.52,1.35-5.19,2.09-6.01-7.31-29.66-35.97-42.67-51.74,3.17-3.01,3.99-7.89,1.7-11.82-2.68-4.59-8.57-6.14-13.16-3.46-4.59,2.68-6.14,8.57-3.46,13.16,2.3,3.93,6.96,5.62,11.13,4.34,7.83,20.38,33.08,85.97,34.05,86.88,17.41-7.09,37.43-11.4,63.37-11.4s45.95,4.31,63.36,11.39c.96-.91,26.55-65.96,34.58-86.87,4.18,1.28,8.83-.41,11.13-4.34,2.58-4.59,1.04-10.48-3.56-13.16h.09Z"/>
      <polygon points="103.02 147.68 111.95 152.15 120.92 147.68 111.95 143.22 103.02 147.68"/>
      <polygon points="66.46 153.47 75.99 156.43 84.11 150.58 74.58 147.62 66.46 153.47"/>
      <polygon points="157.48 153.5 147.95 156.49 139.83 150.64 149.36 147.65 157.48 153.5"/>
    </g>
  </g>
</svg>