<?xml version="1.0" encoding="UTF-8"?>
<svg id="Layer_2" data-name="Layer 2" xmlns="http://www.w3.org/2000/svg" viewBox="0 0 215.48 203.19">
  <defs>
    <style>
      .cls-1 {
        fill: #fff;
        stroke-width: 3.49px;
      }

      .cls-1, .cls-2 {
        stroke: #20201e;
      }

      .cls-2 {
        fill: none;
        stroke-width: 2.68px;
      }
    </style>
  </defs>
  <g id="Ebene_1" data-name="Ebene 1">
    <g>
      <path class="cls-1" d="m55.03,25.19s3.49-18.76,3.49-21.37,2.61-3.05,5.23.44c2.62,3.49,14.39,20.5,14.39,20.5l-23.12.43h0Z"/>
      <path class="cls-1" d="m211.52,169.05c-1.18-8.46-2.8-16.52-4.77-24.19l-6.32-2.52,4.22-5.05c-2.4-8.11-5.2-15.74-8.27-22.92l-5.98-1.69,2.96-5.06c-3.21-6.83-6.66-13.19-10.25-19.12l-5.58-1.12,2-4.6c-4.02-6.2-8.15-11.86-12.24-16.99l-5.9-.65,1.58-4.6c-4.79-5.63-9.46-10.52-13.77-14.7l-5.9-.33,1.03-4.23c-10.53-9.53-17.97-14.16-17.97-14.16l-13.37,4.07s-6.39-3.49-11.63-6.98c0,0-3.49-11.63-4.65-18.03-1.17-6.4-4.65-3.49-5.82-1.75-1.16,1.75-13.23,15.12-13.23,15.12,0,0-7.22-.99-12.36,0-7.56,1.46-11.04,6.54-19.77,14.83-6.36,6.04-10.17,11.34-12.35,17.01-2.18,5.67.43,5.67-.43,10.9-.88,5.23-24.43,44.49-27.04,49.28-2.62,4.8-8.94,19.47,3.49,28.78,3.48,2.62,6.11,3.93,8.29,4.8,0,0,3.49-.87,4.8-2.61.23-.31.35-.5.41-.61.04-.12.06-.12,0,0-.13.34-.44,1.61.9,3.22,2.18,2.62,4.98,2.42,6.54,2.62,2.33.29,6.54-1.74,10.03-6.98,3.49-5.23,5.67-6.98,8.29-10.03,2.61-3.05,17.05-9.81,22.68-19.19,1.31-2.18,4.36-1.31,6.54.44,2.18,1.75,14.39,2.18,19.63-6.54,0,0,2.47,22.94-7.85,38.82-17.01,26.17-45.79,32.71-54.52,57.14h178.82c0-8.44-.45-16.55-1.25-24.34l-5.94-3.14,5.13-4.85-.15-.06Z"/>
      <path class="cls-2" d="m119.37,37.02s76.18,56.99,76.18,159.92"/>
      <path class="cls-2" d="m103.67,76.55c1.45,16.28-6.11,27.91-6.4,28.93,0,0,18.32-9.45,20.06-21.95"/>
      <path class="cls-2" d="m97.28,105.5s12.21,5.97,21.23,2.18"/>
      <path class="cls-2" d="m22.25,142.56s8.14-10.47,10.47-15.27"/>
      <path class="cls-2" d="m72.43,45.31s-13.41.06-17.88,7.41c-6.1,10.03.87,11.34.87,11.34,0,0,6.98,2.18,11.78-4.36,5.11-6.97.87-11.34.87-11.34l4.34-3.05h.02Z"/>
      <path class="cls-2" d="m7.43,119.88c4.8-1.31,7.85-.87,10.03.44,0,0-2.18-6.54,1.74-12.21,3.93-5.67,10.47-6.11,16.14-17.01"/>
      <line class="cls-2" x1="134.78" y1="51.41" x2="143.06" y2="46.18"/>
      <line class="cls-2" x1="151.8" y1="70.17" x2="160.08" y2="66.24"/>
      <line class="cls-2" x1="167.06" y1="91.94" x2="176.66" y2="88.01"/>
      <line class="cls-2" x1="179.27" y1="116.82" x2="189.31" y2="113.33"/>
      <line class="cls-2" x1="188.87" y1="146.05" x2="199.34" y2="143"/>
      <line class="cls-2" x1="194.53" y1="175.72" x2="205.44" y2="174.4"/>
    </g>
  </g>
</svg>