<?xml version="1.0" encoding="UTF-8"?>
<svg id="Layer_2" data-name="Layer 2" xmlns="http://www.w3.org/2000/svg" viewBox="0 0 132.17 198.8">
  <defs>
    <style>
      .cls-1 {
        fill: #fff;
        stroke: #000;
        stroke-linejoin: round;
        stroke-width: 3.49px;
      }
    </style>
  </defs>
  <g id="Ebene_1" data-name="Ebene 1">
    <path class="cls-1" d="m91.08,168.78c-11.8-23.42-10.61-65.14-9.62-81.3,18.66-1.28,32.08-4.81,32.08-8.98s-12.92-7.57-31.03-8.91c11.57-5.96,19.49-18.02,19.49-31.93,0-19.83-16.07-35.91-35.91-35.91S30.18,17.83,30.18,37.66c0,13.91,7.91,25.97,19.49,31.93-18.11,1.33-31.04,4.82-31.04,8.91s13.43,7.7,32.08,8.98c.99,16.16,2.18,57.88-9.62,81.3-23.12,4.65-39.35,15.56-39.35,28.27h128.67c0-12.71-16.2-23.63-39.33-28.28h-.02Z"/>
  </g>
</svg>