<?xml version="1.0" encoding="UTF-8"?>
<svg id="Layer_2" data-name="Layer 2" xmlns="http://www.w3.org/2000/svg" viewBox="0 0 238.06 220.33">
  <defs>
    <style>
      .cls-1 {
        stroke-width: 2.42px;
      }

      .cls-1, .cls-2, .cls-3 {
        stroke: #000;
      }

      .cls-1, .cls-4, .cls-5, .cls-6, .cls-3 {
        fill: #fff;
      }

      .cls-2 {
        fill: none;
      }

      .cls-2, .cls-3 {
        stroke-width: 3.19px;
      }

      .cls-4, .cls-5, .cls-6 {
        stroke: #20201e;
        stroke-width: 4.15px;
      }

      .cls-5, .cls-3 {
        stroke-linejoin: bevel;
      }

      .cls-6 {
        stroke-linecap: round;
        stroke-linejoin: round;
      }
    </style>
  </defs>
  <g id="Ebene_1" data-name="Ebene 1">
    <g>
      <path class="cls-6" d="m235.9,208.73c-1.96-1.07-19.66-18.46-36.08-18.46-8.53,0-15.22,2.58-21.12,4.85-5.98,2.3-11.63,4.48-19.81,4.48-9.53,0-17.44-2.91-24.43-5.47-5.63-2.07-10.5-3.85-15.47-3.85s-9.84,1.79-15.47,3.85c-6.98,2.57-14.9,5.47-24.43,5.47-8.18,0-13.83-2.18-19.81-4.48-5.9-2.27-12.59-4.85-21.13-4.85-16.41,0-34.11,17.39-36.07,18.46,0,0,7.53-4.47,13.79-4.47s12.41,4.66,22.28,4.66c5.07,0,9.2,1.59,14.42,3.6,6.62,2.55,14.87,5.72,26.51,5.72,12.85,0,23.26-3.82,30.86-6.61,3.46-1.27,7.38-2.71,9.04-2.71s5.58,1.44,9.04,2.71c7.6,2.79,18.01,6.61,30.86,6.61,11.64,0,19.89-3.17,26.51-5.72,5.22-2.01,9.36-3.6,14.42-3.6,9.87,0,13.95-4.66,22.28-4.66s13.87,4.47,13.87,4.47h-.08Z"/>
      <path class="cls-4" d="m137.08,19.66c-.67-.22-1.36-.4-2.06-.55,3.35-1.24,5.74-4.46,5.74-8.24,0-4.86-3.94-8.79-8.79-8.79s-8.79,3.94-8.79,8.79c0,3.38,1.9,6.3,4.69,7.78-25.24,1.64-63.55,34.89-64.77,91.18-.49,22.37,2.35,40.68,10.16,53.97l84.45-.6c12.35-15.58,23.7-35.29,23.7-61.14,0-34.39-25.11-76.1-44.33-82.42,0,0,0,.02,0,.02Z"/>
      <path class="cls-4" d="m162.38,82.88c-9.28-30.3-33.8-59.95-55.41-63.87,3.21-1.31,5.47-4.46,5.47-8.14,0-4.86-3.94-8.79-8.79-8.79s-8.79,3.94-8.79,8.79c0,3.43,1.97,6.4,4.84,7.85-1.49.16-2.96.47-4.39.95-19.17,6.31-43.73,48.71-43.73,82.39,0,24.85,10.07,46.25,21.68,61.75l84.45-.6c7.99-13.34,17.78-37.5,4.66-80.32h.01Z"/>
      <path class="cls-3" d="m157.44,198.44c-10.61-4.87-25.65-8.33-40.73-8.33s-29.22,3.07-41.9,8.65c12.67,5.57,26.57,8.81,41.66,8.81s28.31-3.56,40.99-9.12h-.02Z"/>
      <path class="cls-5" d="m153.03,169.09h0c-10.28-4.43-22.11-8.14-37.41-8.14s-27.13,3.71-37.41,8.14c0,0-2.3,14.97-2.53,18.35-.35,5.18-.87,11.31-.87,11.31,12.67-5.57,26.8-8.65,41.9-8.65s28.24,2.96,40.73,8.33c-.45-4.15-.97-8.29-2-14.51-.57-3.3-2.42-14.88-2.42-14.88l.02.04Z"/>
      <path class="cls-5" d="m74.79,198.76c12.67-5.57,26.8-8.65,41.9-8.65s28.24,2.96,40.73,8.33c-.32-3.47-1.09-5.63-1.57-10.06-12.56-4.4-25.28-6.64-39.35-6.64s-28.33,2.58-41.01,7.08c-.06,3.9-.72,9.94-.72,9.94h.03Z"/>
      <path class="cls-4" d="m78.19,169.09c10.28-4.42,22.11-8.21,37.43-8.31,13.04-.09,27.13,3.88,37.42,8.3.56-.57,2.95-1.29,4.68-5.89-8.65-9.36-21.5-14.25-42.1-14.25-21.98,0-33.71,5.48-42.35,14.85,1.7,4.59,4.34,4.72,4.91,5.29h.02Z"/>
      <line class="cls-2" x1="115.63" y1="148.95" x2="115.63" y2="160.78"/>
      <polygon class="cls-1" points="137.49 85.69 133.37 89.81 112.67 89.81 112.67 71.14 116.79 67.02 108.48 58.72 100.18 67.02 104.33 71.18 104.33 89.81 83.54 89.81 79.41 85.69 71.11 93.99 79.41 102.3 83.57 98.14 104.33 98.14 104.33 120.95 100.18 125.11 108.48 133.41 116.79 125.11 112.67 120.99 112.67 98.14 133.34 98.14 137.49 102.3 145.8 93.99 137.49 85.69"/>
    </g>
  </g>
</svg>