<?xml version="1.0" encoding="UTF-8"?>
<svg id="Layer_2" data-name="Layer 2" xmlns="http://www.w3.org/2000/svg" viewBox="0 0 204.46 197.21">
  <defs>
    <style>
      .cls-1 {
        stroke-linejoin: round;
      }

      .cls-1, .cls-2, .cls-3, .cls-4 {
        stroke: #20201e;
        stroke-width: 3.81px;
      }

      .cls-1, .cls-2, .cls-4 {
        fill: #fff;
      }

      .cls-2 {
        stroke-linejoin: bevel;
      }

      .cls-3 {
        fill: none;
      }
    </style>
  </defs>
  <g id="Ebene_1" data-name="Ebene 1">
    <g>
      <path class="cls-4" d="m127.14,1.9h-50.65v52.93c0,7.79,11.4,14.12,25.45,14.12s25.1-6.32,25.1-14.12c0-.69.09-52.93.09-52.93h0Z"/>
      <rect class="cls-4" x="76.48" y="1.9" width="50.65" height="45.39"/>
      <line class="cls-3" x1="76.48" y1="1.9" x2="127.14" y2="47.29"/>
      <line class="cls-3" x1="127.14" y1="1.9" x2="76.48" y2="47.29"/>
      <path class="cls-1" d="m167.22,179.64c-19.71-9.72-41.13-14.84-64.59-14.84s-45.9,5.45-65.61,15.17c19.71,9.72,41.76,15.32,65.22,15.32,23.47.03,45.27-5.91,64.97-15.64v-.03Z"/>
      <path class="cls-2" d="m177.06,146.29c1.13-.99,2.25-2,3.35-3.07,23.82-23.17,29.27-56.2,12.18-73.76-17.09-17.57-50.25-13.01-74.07,10.16-7.12,6.92-12.58,14.72-16.3,22.73-3.72-8-9.19-15.81-16.3-22.73-23.82-23.17-56.98-27.72-74.07-10.16C-5.23,87.03.23,120.05,24.05,143.22c1.1,1.07,2.23,2.09,3.37,3.08,20.56-7.72,46.56-12.34,74.84-12.34s54.24,4.62,74.78,12.33h.03Z"/>
      <path class="cls-4" d="m102.25,102.37c3.73-8.01,9.19-15.81,16.3-22.72,5.8-5.65,12.16-10.18,18.7-13.56-10.86-3.05-22.65-4.73-34.99-4.73s-24.15,1.68-35.01,4.74c6.54,3.38,12.89,7.91,18.69,13.55,7.11,6.92,12.55,14.72,16.3,22.71h0Z"/>
      <path class="cls-2" d="m176.78,146.29v-.02c-20.57-7.71-46.55-12.32-74.8-12.32s-54.27,4.61-74.83,12.34c0,0,9.86,7.73,11.29,13.43,1.43,5.7,2.04,13.88-1.39,20.24,19.71-9.72,42.15-15.17,65.61-15.17s45.17,5.46,64.59,14.84c-3.13-6.28-3.14-14.36-1.75-19.9,1.42-5.66,11.29-13.4,11.29-13.4v-.03Z"/>
      <path class="cls-2" d="m37.03,179.99c19.71-9.72,42.15-15.17,65.61-15.17s45.16,5.46,64.59,14.84c-1.33-2.68-2.73-9.53-2.51-13.35-19.52-7.67-40.52-11.87-62.39-11.87s-43.34,4.28-63.05,12.12c.25,7.08-.76,10.63-2.23,13.4v.04Z"/>
      <polygon points="92.62 144.47 102.38 149.35 112.1 144.47 102.38 139.59 92.62 144.47"/>
      <polygon points="52.76 150.82 63.14 154.07 71.98 147.68 61.6 144.44 52.76 150.82"/>
      <polygon points="151.96 150.82 141.58 154.07 132.74 147.68 143.12 144.44 151.96 150.82"/>
      <ellipse class="cls-4" cx="102.25" cy="62.08" rx="17.93" ry="13.24"/>
    </g>
  </g>
</svg>